HIERARCHY
ROOT mixamorig:Hips
{
	OFFSET 0.000000 201.639420 0.000000
	CHANNELS 6 Xposition Yposition Zposition Xrotation Yrotation Zrotation
	JOINT mixamorig:Spine
	{
		OFFSET 0.006200 19.524994 -2.481800
		CHANNELS 3 Xrotation Yrotation Zrotation
		JOINT mixamorig:Spine1
		{
			OFFSET -0.000900 22.835007 -2.825400
			CHANNELS 3 Xrotation Yrotation Zrotation
			JOINT mixamorig:Spine2
			{
				OFFSET -0.020600 26.552490 -3.193300
				CHANNELS 3 Xrotation Yrotation Zrotation
				JOINT mixamorig:Neck
				{
					OFFSET -0.060000 30.701813 1.352200
					CHANNELS 3 Xrotation Yrotation Zrotation
					JOINT mixamorig:Head
					{
						OFFSET -0.087200 22.547607 3.670900
						CHANNELS 3 Xrotation Yrotation Zrotation
						JOINT mixamorig:HeadTop_End
						{
							OFFSET -0.830600 40.355194 7.893500
							CHANNELS 3 Xrotation Yrotation Zrotation
							End Site
							{
								OFFSET 0.000000 30.592346 0.000000
							}
						}
						JOINT mixamorig:RightEye
						{
							OFFSET -6.302100 18.118591 16.197100
							CHANNELS 3 Xrotation Yrotation Zrotation
							End Site
							{
								OFFSET 0.000000 30.592346 0.000000
							}
						}
						JOINT mixamorig:LeftEye
						{
							OFFSET 6.741500 18.382690 16.401899
							CHANNELS 3 Xrotation Yrotation Zrotation
							End Site
							{
								OFFSET 0.000000 30.592346 0.000000
							}
						}
					}
				}
				JOINT mixamorig:LeftShoulder
				{
					OFFSET 11.924900 18.230499 1.425400
					CHANNELS 3 Xrotation Yrotation Zrotation
					JOINT mixamorig:LeftArm
					{
						OFFSET 25.435989 -0.697632 -5.229300
						CHANNELS 3 Xrotation Yrotation Zrotation
						JOINT mixamorig:LeftForeArm
						{
							OFFSET 54.684776 0.000000 0.000000
							CHANNELS 3 Xrotation Yrotation Zrotation
							JOINT mixamorig:LeftHand
							{
								OFFSET 55.098175 0.000000 0.000000
								CHANNELS 3 Xrotation Yrotation Zrotation
								JOINT mixamorig:LeftHandMiddle1
								{
									OFFSET 23.369751 0.000000 0.000000
									CHANNELS 3 Xrotation Yrotation Zrotation
									JOINT mixamorig:LeftHandMiddle2
									{
										OFFSET 6.378677 0.000000 0.000000
										CHANNELS 3 Xrotation Yrotation Zrotation
										JOINT mixamorig:LeftHandMiddle3
										{
											OFFSET 6.148331 0.000000 0.000000
											CHANNELS 3 Xrotation Yrotation Zrotation
											JOINT mixamorig:LeftHandMiddle4
											{
												OFFSET 6.582504 0.000000 0.000000
												CHANNELS 3 Xrotation Yrotation Zrotation
												End Site
												{
													OFFSET -1.168900 6.395691 1.028606
												}
											}
										}
									}
								}
								JOINT mixamorig:LeftHandThumb1
								{
									OFFSET 7.235672 -3.848206 5.434273
									CHANNELS 3 Xrotation Yrotation Zrotation
									JOINT mixamorig:LeftHandThumb2
									{
										OFFSET 6.568451 -3.792297 3.792300
										CHANNELS 3 Xrotation Yrotation Zrotation
										JOINT mixamorig:LeftHandThumb3
										{
											OFFSET 6.063080 -3.500519 3.500518
											CHANNELS 3 Xrotation Yrotation Zrotation
											JOINT mixamorig:LeftHandThumb4
											{
												OFFSET 4.793182 -2.767334 2.767349
												CHANNELS 3 Xrotation Yrotation Zrotation
												End Site
												{
													OFFSET 0.101639 6.054260 1.275483
												}
											}
										}
									}
								}
								JOINT mixamorig:LeftHandIndex1
								{
									OFFSET 23.101074 -0.309540 4.992809
									CHANNELS 3 Xrotation Yrotation Zrotation
									JOINT mixamorig:LeftHandIndex2
									{
										OFFSET 6.226883 0.000000 0.000000
										CHANNELS 3 Xrotation Yrotation Zrotation
										JOINT mixamorig:LeftHandIndex3
										{
											OFFSET 6.094330 0.000000 0.000000
											CHANNELS 3 Xrotation Yrotation Zrotation
											JOINT mixamorig:LeftHandIndex4
											{
												OFFSET 5.482605 0.000000 0.000000
												CHANNELS 3 Xrotation Yrotation Zrotation
												End Site
												{
													OFFSET -1.427902 5.233032 0.797164
												}
											}
										}
									}
								}
								JOINT mixamorig:LeftHandRing1
								{
									OFFSET 22.299240 0.021149 -3.964172
									CHANNELS 3 Xrotation Yrotation Zrotation
									JOINT mixamorig:LeftHandRing2
									{
										OFFSET 6.321869 0.000000 0.000000
										CHANNELS 3 Xrotation Yrotation Zrotation
										JOINT mixamorig:LeftHandRing3
										{
											OFFSET 5.899796 0.000000 0.000000
											CHANNELS 3 Xrotation Yrotation Zrotation
											JOINT mixamorig:LeftHandRing4
											{
												OFFSET 6.517899 0.000000 0.000000
												CHANNELS 3 Xrotation Yrotation Zrotation
												End Site
												{
													OFFSET -1.637299 6.232208 0.980890
												}
											}
										}
									}
								}
								JOINT mixamorig:LeftHandPinky1
								{
									OFFSET 20.463791 -0.302338 -8.562233
									CHANNELS 3 Xrotation Yrotation Zrotation
									JOINT mixamorig:LeftHandPinky2
									{
										OFFSET 6.908646 0.000000 0.000000
										CHANNELS 3 Xrotation Yrotation Zrotation
										JOINT mixamorig:LeftHandPinky3
										{
											OFFSET 4.622849 0.000000 0.000000
											CHANNELS 3 Xrotation Yrotation Zrotation
											JOINT mixamorig:LeftHandPinky4
											{
												OFFSET 5.216080 0.000000 0.000000
												CHANNELS 3 Xrotation Yrotation Zrotation
												End Site
												{
													OFFSET -0.606308 5.116241 0.814926
												}
											}
										}
									}
								}
							}
						}
					}
				}
				JOINT mixamorig:RightShoulder
				{
					OFFSET -12.001300 18.284088 1.348900
					CHANNELS 3 Xrotation Yrotation Zrotation
					JOINT mixamorig:RightArm
					{
						OFFSET -25.308500 -0.751312 -5.164599
						CHANNELS 3 Xrotation Yrotation Zrotation
						JOINT mixamorig:RightForeArm
						{
							OFFSET -54.684429 0.000000 0.000000
							CHANNELS 3 Xrotation Yrotation Zrotation
							JOINT mixamorig:RightHand
							{
								OFFSET -55.150291 0.000000 0.000000
								CHANNELS 3 Xrotation Yrotation Zrotation
								JOINT mixamorig:RightHandMiddle1
								{
									OFFSET -23.317566 0.000000 0.000000
									CHANNELS 3 Xrotation Yrotation Zrotation
									JOINT mixamorig:RightHandMiddle2
									{
										OFFSET -6.378403 0.000000 0.000000
										CHANNELS 3 Xrotation Yrotation Zrotation
										JOINT mixamorig:RightHandMiddle3
										{
											OFFSET -6.148193 0.000000 0.000000
											CHANNELS 3 Xrotation Yrotation Zrotation
											JOINT mixamorig:RightHandMiddle4
											{
												OFFSET -6.583389 0.000000 0.000000
												CHANNELS 3 Xrotation Yrotation Zrotation
												End Site
												{
													OFFSET 1.171692 6.395905 1.029786
												}
											}
										}
									}
								}
								JOINT mixamorig:RightHandThumb1
								{
									OFFSET -7.190521 -3.860474 5.435846
									CHANNELS 3 Xrotation Yrotation Zrotation
									JOINT mixamorig:RightHandThumb2
									{
										OFFSET -6.567429 -3.791718 3.791708
										CHANNELS 3 Xrotation Yrotation Zrotation
										JOINT mixamorig:RightHandThumb3
										{
											OFFSET -6.062469 -3.500153 3.500166
											CHANNELS 3 Xrotation Yrotation Zrotation
											JOINT mixamorig:RightHandThumb4
											{
												OFFSET -4.792618 -2.767029 2.767022
												CHANNELS 3 Xrotation Yrotation Zrotation
												End Site
												{
													OFFSET -0.100327 6.053253 1.276754
												}
											}
										}
									}
								}
								JOINT mixamorig:RightHandIndex1
								{
									OFFSET -23.048981 -0.310791 4.992554
									CHANNELS 3 Xrotation Yrotation Zrotation
									JOINT mixamorig:RightHandIndex2
									{
										OFFSET -6.227539 0.000000 0.000000
										CHANNELS 3 Xrotation Yrotation Zrotation
										JOINT mixamorig:RightHandIndex3
										{
											OFFSET -6.095047 0.000000 0.000000
											CHANNELS 3 Xrotation Yrotation Zrotation
											JOINT mixamorig:RightHandIndex4
											{
												OFFSET -5.484772 0.000000 0.000000
												CHANNELS 3 Xrotation Yrotation Zrotation
												End Site
												{
													OFFSET 1.420593 5.237305 0.797056
												}
											}
										}
									}
								}
								JOINT mixamorig:RightHandRing1
								{
									OFFSET -22.246323 0.020569 -3.963762
									CHANNELS 3 Xrotation Yrotation Zrotation
									JOINT mixamorig:RightHandRing2
									{
										OFFSET -6.322128 0.000000 0.000000
										CHANNELS 3 Xrotation Yrotation Zrotation
										JOINT mixamorig:RightHandRing3
										{
											OFFSET -5.900024 0.000000 0.000000
											CHANNELS 3 Xrotation Yrotation Zrotation
											JOINT mixamorig:RightHandRing4
											{
												OFFSET -6.518356 0.000000 0.000000
												CHANNELS 3 Xrotation Yrotation Zrotation
												End Site
												{
													OFFSET 1.636398 6.232697 0.982186
												}
											}
										}
									}
								}
								JOINT mixamorig:RightHandPinky1
								{
									OFFSET -20.411011 -0.303314 -8.561701
									CHANNELS 3 Xrotation Yrotation Zrotation
									JOINT mixamorig:RightHandPinky2
									{
										OFFSET -6.907349 0.000000 0.000000
										CHANNELS 3 Xrotation Yrotation Zrotation
										JOINT mixamorig:RightHandPinky3
										{
											OFFSET -4.623840 0.000000 0.000000
											CHANNELS 3 Xrotation Yrotation Zrotation
											JOINT mixamorig:RightHandPinky4
											{
												OFFSET -5.218353 0.000000 0.000000
												CHANNELS 3 Xrotation Yrotation Zrotation
												End Site
												{
													OFFSET 0.602097 5.118835 0.816273
												}
											}
										}
									}
								}
							}
						}
					}
				}
			}
		}
	}
	JOINT mixamorig:LeftUpLeg
	{
		OFFSET 18.168400 -13.561905 -0.039000
		CHANNELS 3 Xrotation Yrotation Zrotation
		JOINT mixamorig:LeftLeg
		{
			OFFSET 0.577358 -80.825211 -3.695000
			CHANNELS 3 Xrotation Yrotation Zrotation
			JOINT mixamorig:LeftFoot
			{
				OFFSET -0.577356 -83.370262 -6.520700
				CHANNELS 3 Xrotation Yrotation Zrotation
				JOINT mixamorig:LeftToeBase
				{
					OFFSET 0.750401 -20.798306 25.135401
					CHANNELS 3 Xrotation Yrotation Zrotation
					JOINT mixamorig:LeftToe_End
					{
						OFFSET -0.000500 0.001200 19.917799
						CHANNELS 3 Xrotation Yrotation Zrotation
						End Site
						{
							OFFSET 0.000000 19.917805 0.000000
						}
					}
				}
			}
		}
	}
	JOINT mixamorig:RightUpLeg
	{
		OFFSET -18.162500 -13.585098 -0.041000
		CHANNELS 3 Xrotation Yrotation Zrotation
		JOINT mixamorig:RightLeg
		{
			OFFSET -0.595024 -80.945297 -3.631900
			CHANNELS 3 Xrotation Yrotation Zrotation
			JOINT mixamorig:RightFoot
			{
				OFFSET 0.595024 -83.218193 -6.561200
				CHANNELS 3 Xrotation Yrotation Zrotation
				JOINT mixamorig:RightToeBase
				{
					OFFSET -0.753601 -20.807106 25.115000
					CHANNELS 3 Xrotation Yrotation Zrotation
					JOINT mixamorig:RightToe_End
					{
						OFFSET 0.000299 0.001700 19.918200
						CHANNELS 3 Xrotation Yrotation Zrotation
						End Site
						{
							OFFSET 0.000000 19.918203 0.000000
						}
					}
				}
			}
		}
	}
}
MOTION
Frames: 4
Frame Time: 0.033333
0.646254 115.407532 -6.841103 -22.798144 0.670673 -2.245884 6.029974 2.664282 0.711907 12.065441 5.241589 0.870216 12.065445 5.241592 0.870216 3.934129 -3.476594 -2.060927 -5.883523 -18.538576 5.028696 -0.000000 -0.000000 0.000000 -0.000000 -0.000000 0.000000 -0.000000 -0.000000 0.000000 1.176751 -2.220280 -19.895247 3.687263 -34.077965 -37.709556 -0.210439 -31.555150 0.020461 12.538859 -7.666775 32.370264 -12.373939 15.012964 -61.237591 -1.436778 -2.870017 -46.000446 -0.000004 0.000004 -0.000001 0.000001 0.000002 0.000002 -4.572100 -13.590595 14.995844 -11.458805 29.458988 -26.351647 -0.000008 -0.000008 -0.000011 0.000002 0.000004 -0.000000 -3.567099 3.842315 -60.590670 -10.164936 -4.550875 -53.684467 -0.000008 0.000001 -0.000006 -0.000001 -0.000002 -0.000003 -11.901681 28.970391 -62.563071 -1.688351 -4.215937 -49.240767 0.000005 -0.000001 0.000009 -0.000003 0.000000 -0.000002 -15.252157 30.084822 -69.930543 -0.435360 -5.276130 -20.890750 -0.000006 -0.000000 -0.000004 0.000001 0.000001 0.000001 0.086834 15.224862 22.203499 -33.603076 23.430844 54.523047 -14.602413 26.665082 6.619375 -3.141155 14.236444 2.760064 -2.320005 10.552224 44.468981 -2.591611 2.915530 74.285233 0.000003 0.000001 -0.000004 0.000001 -0.000000 -0.000001 23.380824 13.538066 5.592164 2.324431 -6.712753 -2.172389 0.000004 0.000003 0.000003 0.000001 0.000003 0.000001 2.187547 5.608966 37.424140 1.433806 -2.439436 69.793052 0.000003 -0.000002 -0.000010 -0.000000 -0.000000 0.000000 -3.428672 13.092790 55.668285 -2.589551 5.513046 54.530284 -0.000001 -0.000001 -0.000006 -0.000001 0.000002 0.000000 -3.360200 14.852907 54.810591 -1.148000 7.534079 27.882106 -0.000007 0.000003 0.000003 -0.000001 -0.000001 -0.000000 -75.466186 -1.450468 7.704745 106.289512 -1.364768 -3.026768 1.883226 -1.116188 1.579522 -18.596788 -0.168653 0.607294 0.000000 0.000000 -0.000000 -71.195495 -0.576716 -14.831884 100.334338 1.602185 2.986363 -5.877175 3.556167 -1.263184 -1.535694 -0.182488 0.437507 -0.000000 0.000000 0.000000 
0.638995 115.412094 -6.825333 -22.779408 0.664701 -2.232218 6.028265 2.663281 0.693823 12.062748 5.238422 0.835622 12.062748 5.238426 0.835621 3.979386 -3.473533 -2.137889 -5.669385 -18.598491 5.281994 -0.000001 -0.000001 0.000000 -0.000001 -0.000001 0.000000 -0.000001 -0.000001 0.000000 1.180049 -2.199416 -19.876224 3.662657 -33.995074 -37.713433 -0.194549 -31.681699 0.022010 12.613086 -7.606841 32.340273 -12.373936 15.012964 -61.237591 -1.436776 -2.870024 -46.000443 -0.000005 0.000001 -0.000002 -0.000000 0.000000 0.000003 -4.606631 -13.612374 14.912852 -11.458803 29.458992 -26.351648 -0.000006 -0.000014 -0.000015 0.000002 -0.000004 0.000001 -3.567101 3.842316 -60.590670 -10.164938 -4.550875 -53.684467 -0.000008 -0.000002 -0.000003 0.000001 -0.000002 -0.000001 -11.901677 28.970384 -62.563071 -1.688355 -4.215940 -49.240767 0.000004 0.000001 0.000005 -0.000001 0.000001 -0.000002 -15.252157 30.084825 -69.930543 -0.435357 -5.276128 -20.890748 -0.000002 -0.000002 -0.000009 -0.000002 -0.000001 -0.000001 0.101467 15.158616 22.345169 -33.298221 23.514458 54.270675 -14.668178 27.164759 6.764650 -3.326641 13.885964 3.301829 -2.242306 10.472432 43.046260 -2.470670 2.879923 72.871882 0.000002 -0.000001 -0.000005 0.000001 -0.000000 0.000002 22.649262 14.734330 6.019939 2.152176 -6.331541 -2.129201 0.000006 0.000005 0.000011 -0.000003 0.000000 -0.000001 2.249429 5.517694 36.009587 1.565648 -2.489777 68.392897 0.000002 -0.000002 -0.000012 0.000002 0.000000 -0.000003 -3.315961 13.015758 54.236271 -2.488749 5.439586 53.113211 -0.000002 -0.000003 -0.000002 -0.000001 -0.000000 0.000001 -3.231784 14.763010 53.373168 -1.098126 7.437589 26.466824 -0.000009 0.000002 0.000003 0.000001 0.000001 0.000000 -75.466931 -1.437601 7.698480 106.296308 -1.357729 -3.026053 1.853404 -1.118863 1.617012 -18.615365 -0.168854 0.608155 0.000000 0.000000 0.000000 -71.218526 -0.567734 -14.834539 100.334400 1.601677 2.986319 -5.874202 3.556349 -1.264191 -1.535684 -0.182481 0.437507 -0.000000 -0.000001 -0.000000 
0.627779 115.437485 -6.815742 -22.752646 0.656772 -2.214098 6.016370 2.667694 0.663534 12.040215 5.245040 0.777257 12.040212 5.245041 0.777256 4.104274 -3.462606 -2.322017 -5.238675 -18.707121 5.636160 -0.000000 -0.000000 0.000000 -0.000000 -0.000000 0.000000 -0.000000 -0.000000 0.000000 1.186674 -2.159367 -19.855481 3.550691 -33.847020 -37.780471 -0.176118 -31.816937 0.028045 12.830054 -7.523806 32.266322 -12.373940 15.012961 -61.237591 -1.436771 -2.870026 -46.000446 -0.000003 0.000001 -0.000005 0.000003 0.000001 -0.000003 -4.657453 -13.649781 14.796321 -11.458809 29.458995 -26.351643 -0.000011 -0.000011 -0.000016 0.000000 0.000002 -0.000001 -3.567100 3.842318 -60.590670 -10.164944 -4.550867 -53.684467 -0.000009 -0.000001 -0.000005 0.000001 -0.000001 -0.000005 -11.901678 28.970391 -62.563071 -1.688354 -4.215939 -49.240767 0.000005 -0.000000 0.000008 -0.000001 0.000001 0.000002 -15.252154 30.084815 -69.930543 -0.435361 -5.276124 -20.890750 -0.000002 -0.000004 -0.000007 -0.000006 0.000001 0.000002 0.148060 14.941906 22.501189 -32.850604 23.694177 53.983336 -14.778241 27.973216 7.002511 -3.767788 13.191814 4.261393 -2.052619 10.259478 39.401585 -2.164974 2.775149 69.249608 0.000004 0.000000 -0.000000 0.000001 -0.000000 0.000004 20.710669 17.775193 7.201472 1.718127 -5.350254 -2.017136 0.000004 0.000005 0.000007 -0.000001 0.000000 -0.000004 2.407179 5.283825 32.384065 1.897674 -2.633375 64.804179 0.000001 -0.000001 -0.000014 -0.000000 0.000001 -0.000002 -3.036518 12.805976 50.568310 -2.245267 5.245031 49.482040 -0.000002 -0.000002 -0.000003 -0.000001 0.000000 -0.000001 -2.913820 14.518566 49.692304 -0.981932 7.186349 22.840718 -0.000006 0.000002 0.000002 0.000000 -0.000001 -0.000000 -75.468399 -1.418841 7.692080 106.282771 -1.354159 -3.025644 1.841492 -1.120237 1.626471 -18.644543 -0.169158 0.609502 -0.000000 -0.000000 0.000000 -71.230581 -0.540489 -14.810435 100.334366 1.591037 2.988004 -5.888029 3.554180 -1.246668 -1.535674 -0.182477 0.437505 0.000000 -0.000000 0.000000 
0.612243 115.471634 -6.797417 -22.732225 0.652483 -2.205086 5.994626 2.676763 0.619081 11.998724 5.258925 0.689337 11.998732 5.258925 0.689336 4.324711 -3.455531 -2.577891 -4.711969 -18.893140 6.052485 0.000000 0.000000 -0.000000 0.000000 0.000000 -0.000000 0.000000 0.000000 -0.000000 1.193918 -2.081730 -19.814201 3.442214 -33.653937 -37.846512 -0.151160 -32.047914 0.041460 13.138192 -7.361766 32.160123 -12.373938 15.012969 -61.237591 -1.436771 -2.870018 -46.000443 -0.000004 0.000003 -0.000001 -0.000000 0.000002 0.000003 -4.720784 -13.632832 14.589716 -11.458807 29.458988 -26.351647 -0.000010 -0.000012 -0.000015 -0.000002 0.000001 0.000002 -3.567100 3.842317 -60.590670 -10.164939 -4.550870 -53.684467 -0.000007 -0.000002 -0.000009 0.000001 -0.000000 0.000000 -11.901680 28.970391 -62.563071 -1.688350 -4.215939 -49.240770 0.000006 -0.000000 0.000006 0.000003 0.000003 0.000001 -15.252152 30.084818 -69.930543 -0.435359 -5.276128 -20.890747 -0.000008 -0.000001 -0.000009 0.000001 0.000001 0.000001 0.235437 14.532003 22.590490 -32.227677 24.038185 53.744604 -14.922235 29.038467 7.317405 -4.316359 12.056135 5.568770 -1.817704 9.951742 34.450535 -1.761226 2.602129 64.325362 0.000002 -0.000001 -0.000001 0.000001 -0.000000 0.000001 17.906712 21.843054 9.021250 1.125600 -4.016807 -1.853047 0.000003 0.000001 0.000007 -0.000001 0.000003 0.000003 2.598923 4.951923 27.456993 2.333538 -2.861394 59.924767 0.000003 -0.000003 -0.000007 0.000001 -0.000000 0.000000 -2.680151 12.493610 45.587196 -1.935062 4.956644 44.547337 -0.000001 -0.000000 -0.000005 -0.000001 0.000000 -0.000002 -2.509345 14.155522 44.695897 -0.851213 6.837265 17.913578 -0.000009 0.000001 0.000000 -0.000001 -0.000000 0.000001 -75.464479 -1.412670 7.690593 106.268168 -1.353992 -3.025595 1.842494 -1.117646 1.618143 -18.691045 -0.169658 0.611651 0.000000 0.000001 0.000000 -71.229270 -0.537058 -14.803890 100.324079 1.583129 2.989133 -5.900464 3.555009 -1.246560 -1.535687 -0.182480 0.437507 -0.000000 0.000001 0.000000 
